# xmcd CD database file
# Copyright (C) 1993-1996 Ti Kan
#
# Track frame offsets:
#	150
#	19520
#	39962
#	59847
#	81222
#	98632
#
# Disc length: 1501 seconds
#
# Revision: 1
# Processed by: cddbd v1.4b41PL1 Copyright (c) Steve Scherf et al.
# Submitted via: CDValet v3.31 - Copyright (c) 1997 Greg Leichner
#
DISCID=4005db06
DTITLE=Compil 6 Slows
DYEAR=1900
DGENRE=
TTITLE0=Should I Leave
TTITLE1=Un-Break My heart
TTITLE2=Sans toi
TTITLE3=I Believe I Can fly
TTITLE4=Avec toi
TTITLE5=E penso a te
EXTD=
EXTT0=Sung by David Charvet
EXTT1=Sung by Toni Braxton
EXTT2=Sung by G Squad
EXTT3=Sung by R. Kelly
EXTT4=Sung by Sweetness
EXTT5=Sung by Graziani
PLAYORDER=
